<svg width="24" height="17" viewBox="0 0 24 17" fill="none" xmlns="http://www.w3.org/2000/svg">
<path d="M24 15.6058C24 16.2653 23.4653 16.8 22.8058 16.8H13.1942C12.5347 16.8 12 16.2653 12 15.6058C12 14.9462 12.5347 14.4115 13.1942 14.4115H22.8058C23.4653 14.4115 24 14.9462 24 15.6058Z" fill="#08275C"/>
<path d="M24 8.40029C24 9.05985 23.4653 9.59452 22.8058 9.59452H1.19423C0.534677 9.59452 0 9.05985 0 8.40029C0 7.74074 0.534675 7.20606 1.19423 7.20606H22.8058C23.4653 7.20606 24 7.74074 24 8.40029Z" fill="#08275C"/>
<path d="M22.8058 2.38846C23.4653 2.38846 24 1.85379 24 1.19423C24 0.534675 23.4653 0 22.8058 0H8.39423C7.73468 0 7.2 0.534675 7.2 1.19423C7.2 1.85379 7.73468 2.38846 8.39423 2.38846H22.8058Z" fill="#08275C"/>
</svg>
